<?xml version="1.0" encoding="UTF-8"?>
<svg width="12px" height="10px" viewBox="0 0 12 10" version="1.1" xmlns="http://www.w3.org/2000/svg" xmlns:xlink="http://www.w3.org/1999/xlink">
    <!-- Generator: Sketch 49 (51002) - http://www.bohemiancoding.com/sketch -->
    <title>ico_SlipRight</title>
    <desc>Created with Sketch.</desc>
    <defs></defs>
    <g id="视觉稿（1.0定稿）" stroke="none" stroke-width="1" fill="none" fill-rule="evenodd">
        <g id="6注册页" transform="translate(-580.000000, -300.000000)" fill="#9A9A9A" fill-rule="nonzero">
            <g id="Group" transform="translate(560.000000, 229.000000)">
                <g id="拼图验证" transform="translate(0.000000, 56.000000)">
                    <g id="ico_SlipRight" transform="translate(20.000000, 15.000000)">
                        <polygon id="Rectangle-11" points="4.38477631 4.8492424 0.935389602 1.3998557 0.949747468 -3.37507799e-14 5.79898987 4.8492424 0.849242405 9.79898987 0.863897851 8.37012086"></polygon>
                        <polygon id="Rectangle-11-Copy" points="10.3847763 4.8492424 6.9353896 1.3998557 6.94974747 -3.37507799e-14 11.7989899 4.8492424 6.8492424 9.79898987 6.86389785 8.37012086"></polygon>
                        <polygon id="Rectangle-11-Copy-3" points="4.38477631 4.8492424 0.935389602 1.3998557 0.949747468 -3.37507799e-14 5.79898987 4.8492424 0.849242405 9.79898987 0.863897851 8.37012086"></polygon>
                        <polygon id="Rectangle-11-Copy-2" points="10.3847763 4.8492424 6.9353896 1.3998557 6.94974747 -3.37507799e-14 11.7989899 4.8492424 6.8492424 9.79898987 6.86389785 8.37012086"></polygon>
                    </g>
                </g>
            </g>
        </g>
    </g>
</svg>